<svg width="20" height="22" viewBox="0 0 20 22" fill="none" xmlns="http://www.w3.org/2000/svg">
<path fill-rule="evenodd" clip-rule="evenodd" d="M10.6139 0.210648C10.2528 -0.0702159 9.74717 -0.0702159 9.38606 0.210648L0.386059 7.21065C0.142473 7.4001 0 7.69141 0 8V19C0 19.7957 0.31607 20.5587 0.87868 21.1213C1.44129 21.6839 2.20435 22 3 22H7C7.55228 22 8 21.5523 8 21V15H12V21C12 21.5523 12.4477 22 13 22H17C17.7957 22 18.5587 21.6839 19.1213 21.1213C19.6839 20.5587 20 19.7957 20 19V8C20 7.69141 19.8575 7.4001 19.6139 7.21065L10.6139 0.210648Z" fill="white"/>
</svg>
